<svg width="200" height="204" viewBox="0 0 200 204" fill="none" xmlns="http://www.w3.org/2000/svg">
<rect x="0.5" y="0.5" width="199" height="203" rx="4.5" stroke="#6F00FF" stroke-dasharray="10 5"/>
<rect x="20" y="20" width="160" height="72" rx="10" fill="url(#paint0_linear_28_1037)"/>
<path d="M44.728 59.888H48.312V62H41.992V50.768H44.728V59.888ZM50.993 52.144C50.513 52.144 50.1183 52.0053 49.809 51.728C49.5103 51.44 49.361 51.088 49.361 50.672C49.361 50.2453 49.5103 49.8933 49.809 49.616C50.1183 49.328 50.513 49.184 50.993 49.184C51.4623 49.184 51.8463 49.328 52.145 49.616C52.4543 49.8933 52.609 50.2453 52.609 50.672C52.609 51.088 52.4543 51.44 52.145 51.728C51.8463 52.0053 51.4623 52.144 50.993 52.144ZM52.353 53.072V62H49.617V53.072H52.353ZM59.8238 52.976C60.8478 52.976 61.6691 53.3173 62.2878 54C62.9064 54.672 63.2158 55.6 63.2158 56.784V62H60.4958V57.152C60.4958 56.5547 60.3411 56.0907 60.0318 55.76C59.7224 55.4293 59.3064 55.264 58.7838 55.264C58.2611 55.264 57.8451 55.4293 57.5358 55.76C57.2264 56.0907 57.0718 56.5547 57.0718 57.152V62H54.3358V50.16H57.0718V54.272C57.3491 53.8773 57.7278 53.5627 58.2078 53.328C58.6878 53.0933 59.2264 52.976 59.8238 52.976ZM64.573 57.52C64.573 56.6027 64.7437 55.7973 65.085 55.104C65.437 54.4107 65.9117 53.8773 66.509 53.504C67.1063 53.1307 67.773 52.944 68.509 52.944C69.1383 52.944 69.6877 53.072 70.157 53.328C70.637 53.584 71.005 53.92 71.261 54.336V53.072H73.997V62H71.261V60.736C70.9943 61.152 70.621 61.488 70.141 61.744C69.6717 62 69.1223 62.128 68.493 62.128C67.7677 62.128 67.1063 61.9413 66.509 61.568C65.9117 61.184 65.437 60.6453 65.085 59.952C64.7437 59.248 64.573 58.4373 64.573 57.52ZM71.261 57.536C71.261 56.8533 71.069 56.3147 70.685 55.92C70.3117 55.5253 69.853 55.328 69.309 55.328C68.765 55.328 68.301 55.5253 67.917 55.92C67.5437 56.304 67.357 56.8373 67.357 57.52C67.357 58.2027 67.5437 58.7467 67.917 59.152C68.301 59.5467 68.765 59.744 69.309 59.744C69.853 59.744 70.3117 59.5467 70.685 59.152C71.069 58.7573 71.261 58.2187 71.261 57.536ZM80.9524 59.68V62H79.5604C78.5684 62 77.795 61.76 77.2404 61.28C76.6857 60.7893 76.4084 59.9947 76.4084 58.896V55.344H75.3204V53.072H76.4084V50.896H79.1444V53.072H80.9364V55.344H79.1444V58.928C79.1444 59.1947 79.2084 59.3867 79.3364 59.504C79.4644 59.6213 79.6777 59.68 79.9764 59.68H80.9524ZM85.403 56.368C85.403 55.2587 85.643 54.272 86.123 53.408C86.603 52.5333 87.2697 51.856 88.123 51.376C88.987 50.8853 89.963 50.64 91.051 50.64C92.3843 50.64 93.5257 50.992 94.475 51.696C95.4243 52.4 96.059 53.36 96.379 54.576H93.371C93.147 54.1067 92.827 53.7493 92.411 53.504C92.0057 53.2587 91.5417 53.136 91.019 53.136C90.1763 53.136 89.4937 53.4293 88.971 54.016C88.4483 54.6027 88.187 55.3867 88.187 56.368C88.187 57.3493 88.4483 58.1333 88.971 58.72C89.4937 59.3067 90.1763 59.6 91.019 59.6C91.5417 59.6 92.0057 59.4773 92.411 59.232C92.827 58.9867 93.147 58.6293 93.371 58.16H96.379C96.059 59.376 95.4243 60.336 94.475 61.04C93.5257 61.7333 92.3843 62.08 91.051 62.08C89.963 62.08 88.987 61.84 88.123 61.36C87.2697 60.8693 86.603 60.192 86.123 59.328C85.643 58.464 85.403 57.4773 85.403 56.368ZM97.5905 56.368C97.5905 55.2587 97.8305 54.272 98.3105 53.408C98.7905 52.5333 99.4572 51.856 100.311 51.376C101.175 50.8853 102.151 50.64 103.239 50.64C104.572 50.64 105.713 50.992 106.663 51.696C107.612 52.4 108.247 53.36 108.567 54.576H105.559C105.335 54.1067 105.015 53.7493 104.599 53.504C104.193 53.2587 103.729 53.136 103.207 53.136C102.364 53.136 101.681 53.4293 101.159 54.016C100.636 54.6027 100.375 55.3867 100.375 56.368C100.375 57.3493 100.636 58.1333 101.159 58.72C101.681 59.3067 102.364 59.6 103.207 59.6C103.729 59.6 104.193 59.4773 104.599 59.232C105.015 58.9867 105.335 58.6293 105.559 58.16H108.567C108.247 59.376 107.612 60.336 106.663 61.04C105.713 61.7333 104.572 62.08 103.239 62.08C102.151 62.08 101.175 61.84 100.311 61.36C99.4572 60.8693 98.7905 60.192 98.3105 59.328C97.8305 58.464 97.5905 57.4773 97.5905 56.368ZM118.322 50.768V52.96H115.346V62H112.61V52.96H109.634V50.768H118.322ZM130.239 50.768L126.255 62H122.831L118.847 50.768H121.759L124.543 59.248L127.343 50.768H130.239Z" fill="white"/>
<path d="M154.707 56.7071C155.098 56.3166 155.098 55.6834 154.707 55.2929L148.343 48.9289C147.953 48.5384 147.319 48.5384 146.929 48.9289C146.538 49.3195 146.538 49.9526 146.929 50.3431L152.586 56L146.929 61.6569C146.538 62.0474 146.538 62.6805 146.929 63.0711C147.319 63.4616 147.953 63.4616 148.343 63.0711L154.707 56.7071ZM144 56V57H154V56V55H144V56Z" fill="white"/>
<rect x="20" y="112" width="160" height="72" rx="10" fill="url(#paint1_linear_28_1037)"/>
<path d="M44.728 151.888H48.312V154H41.992V142.768H44.728V151.888ZM50.993 144.144C50.513 144.144 50.1183 144.005 49.809 143.728C49.5103 143.44 49.361 143.088 49.361 142.672C49.361 142.245 49.5103 141.893 49.809 141.616C50.1183 141.328 50.513 141.184 50.993 141.184C51.4623 141.184 51.8463 141.328 52.145 141.616C52.4543 141.893 52.609 142.245 52.609 142.672C52.609 143.088 52.4543 143.44 52.145 143.728C51.8463 144.005 51.4623 144.144 50.993 144.144ZM52.353 145.072V154H49.617V145.072H52.353ZM59.8238 144.976C60.8478 144.976 61.6691 145.317 62.2878 146C62.9064 146.672 63.2158 147.6 63.2158 148.784V154H60.4958V149.152C60.4958 148.555 60.3411 148.091 60.0318 147.76C59.7224 147.429 59.3064 147.264 58.7838 147.264C58.2611 147.264 57.8451 147.429 57.5358 147.76C57.2264 148.091 57.0718 148.555 57.0718 149.152V154H54.3358V142.16H57.0718V146.272C57.3491 145.877 57.7278 145.563 58.2078 145.328C58.6878 145.093 59.2264 144.976 59.8238 144.976ZM64.573 149.52C64.573 148.603 64.7437 147.797 65.085 147.104C65.437 146.411 65.9117 145.877 66.509 145.504C67.1063 145.131 67.773 144.944 68.509 144.944C69.1383 144.944 69.6877 145.072 70.157 145.328C70.637 145.584 71.005 145.92 71.261 146.336V145.072H73.997V154H71.261V152.736C70.9943 153.152 70.621 153.488 70.141 153.744C69.6717 154 69.1223 154.128 68.493 154.128C67.7677 154.128 67.1063 153.941 66.509 153.568C65.9117 153.184 65.437 152.645 65.085 151.952C64.7437 151.248 64.573 150.437 64.573 149.52ZM71.261 149.536C71.261 148.853 71.069 148.315 70.685 147.92C70.3117 147.525 69.853 147.328 69.309 147.328C68.765 147.328 68.301 147.525 67.917 147.92C67.5437 148.304 67.357 148.837 67.357 149.52C67.357 150.203 67.5437 150.747 67.917 151.152C68.301 151.547 68.765 151.744 69.309 151.744C69.853 151.744 70.3117 151.547 70.685 151.152C71.069 150.757 71.261 150.219 71.261 149.536ZM80.9524 151.68V154H79.5604C78.5684 154 77.795 153.76 77.2404 153.28C76.6857 152.789 76.4084 151.995 76.4084 150.896V147.344H75.3204V145.072H76.4084V142.896H79.1444V145.072H80.9364V147.344H79.1444V150.928C79.1444 151.195 79.2084 151.387 79.3364 151.504C79.4644 151.621 79.6777 151.68 79.9764 151.68H80.9524ZM85.403 148.368C85.403 147.259 85.643 146.272 86.123 145.408C86.603 144.533 87.2697 143.856 88.123 143.376C88.987 142.885 89.963 142.64 91.051 142.64C92.3843 142.64 93.5257 142.992 94.475 143.696C95.4243 144.4 96.059 145.36 96.379 146.576H93.371C93.147 146.107 92.827 145.749 92.411 145.504C92.0057 145.259 91.5417 145.136 91.019 145.136C90.1763 145.136 89.4937 145.429 88.971 146.016C88.4483 146.603 88.187 147.387 88.187 148.368C88.187 149.349 88.4483 150.133 88.971 150.72C89.4937 151.307 90.1763 151.6 91.019 151.6C91.5417 151.6 92.0057 151.477 92.411 151.232C92.827 150.987 93.147 150.629 93.371 150.16H96.379C96.059 151.376 95.4243 152.336 94.475 153.04C93.5257 153.733 92.3843 154.08 91.051 154.08C89.963 154.08 88.987 153.84 88.123 153.36C87.2697 152.869 86.603 152.192 86.123 151.328C85.643 150.464 85.403 149.477 85.403 148.368ZM97.5905 148.368C97.5905 147.259 97.8305 146.272 98.3105 145.408C98.7905 144.533 99.4572 143.856 100.311 143.376C101.175 142.885 102.151 142.64 103.239 142.64C104.572 142.64 105.713 142.992 106.663 143.696C107.612 144.4 108.247 145.36 108.567 146.576H105.559C105.335 146.107 105.015 145.749 104.599 145.504C104.193 145.259 103.729 145.136 103.207 145.136C102.364 145.136 101.681 145.429 101.159 146.016C100.636 146.603 100.375 147.387 100.375 148.368C100.375 149.349 100.636 150.133 101.159 150.72C101.681 151.307 102.364 151.6 103.207 151.6C103.729 151.6 104.193 151.477 104.599 151.232C105.015 150.987 105.335 150.629 105.559 150.16H108.567C108.247 151.376 107.612 152.336 106.663 153.04C105.713 153.733 104.572 154.08 103.239 154.08C102.151 154.08 101.175 153.84 100.311 153.36C99.4572 152.869 98.7905 152.192 98.3105 151.328C97.8305 150.464 97.5905 149.477 97.5905 148.368ZM118.322 142.768V144.96H115.346V154H112.61V144.96H109.634V142.768H118.322ZM130.239 142.768L126.255 154H122.831L118.847 142.768H121.759L124.543 151.248L127.343 142.768H130.239Z" fill="#009999"/>
<path d="M154.707 148.707C155.098 148.317 155.098 147.683 154.707 147.293L148.343 140.929C147.953 140.538 147.319 140.538 146.929 140.929C146.538 141.319 146.538 141.953 146.929 142.343L152.586 148L146.929 153.657C146.538 154.047 146.538 154.681 146.929 155.071C147.319 155.462 147.953 155.462 148.343 155.071L154.707 148.707ZM144 148V149H154V148V147H144V148Z" fill="#009999"/>
<defs>
<linearGradient id="paint0_linear_28_1037" x1="100" y1="20" x2="100" y2="92" gradientUnits="userSpaceOnUse">
<stop stop-color="#00FFFF"/>
<stop offset="1" stop-color="#009999"/>
</linearGradient>
<linearGradient id="paint1_linear_28_1037" x1="100" y1="112" x2="100" y2="184" gradientUnits="userSpaceOnUse">
<stop stop-color="#FDFFFF"/>
<stop offset="1" stop-color="#A5A9A9"/>
</linearGradient>
</defs>
</svg>
